<svg xmlns="http://www.w3.org/2000/svg" version="1.1" xmlns:xlink="http://www.w3.org/1999/xlink" xmlns:svgjs="http://svgjs.com/svgjs" width="76" height="55"><svg width="76" height="55" viewBox="0 0 76 55" fill="none" xmlns="http://www.w3.org/2000/svg">
<path d="M16.1075 39.5978C13.3172 39.5978 10.8741 38.8419 9.07174 37.6203V48.6094C9.07174 51.8069 9.36211 53.0869 11.4565 53.6109V54.4837H0.580729V53.6109C2.79025 52.9718 2.90708 51.5749 2.90708 48.6094V17.7346C2.90708 15.6986 2.38305 15.1763 0 14.5372V13.6643L9.07174 11.6868V16.2811C10.8741 13.0252 14.9443 11.6868 17.7947 11.6868C24.9473 11.6868 30.0639 17.269 30.0639 25.8751C30.0639 35.062 24.0745 39.5978 16.1092 39.5978H16.1075ZM15.3515 13.6643C11.6885 13.6643 9.42052 16.4546 9.07174 20.1761V30.9333C9.47894 36.5155 12.6764 38.725 15.9907 38.725C20.0609 38.725 22.9096 35.6427 22.9096 26.5727C22.9096 17.5026 20.2345 13.6643 15.3498 13.6643H15.3515Z" fill="white"></path>
<path d="M46.2547 39.8449C43.4645 39.8449 41.0213 39.0889 39.219 37.8673V48.8565C39.219 52.054 39.5093 53.334 41.6037 53.858V54.7308H30.7297V53.858C32.9392 53.2189 33.056 51.822 33.056 48.8565V17.9817C33.056 15.9457 32.532 15.4234 30.1489 14.7842V13.9114L39.2207 11.9338V16.5281C41.023 13.2723 45.0932 11.9338 47.9436 11.9338C55.0962 11.9338 60.2128 17.5161 60.2128 26.1222C60.2128 35.309 54.2234 39.8449 46.2581 39.8449H46.2547ZM45.4987 13.9114C41.8357 13.9114 39.5677 16.7017 39.219 20.4231V31.1804C39.6261 36.7626 42.8236 38.9721 46.1379 38.9721C50.2081 38.9721 53.0568 35.8898 53.0568 26.8197C53.0568 17.7497 50.3817 13.9114 45.497 13.9114H45.4987Z" fill="white"></path>
<path d="M75.9982 39.0755H65.1826V38.2027C67.3921 37.5052 67.509 35.8179 67.509 32.8524V18.317C67.509 16.3395 66.9282 15.5268 64.5435 14.5372V13.6643L73.6152 11.6868V32.8524C73.6152 36.0499 73.9056 37.6203 76 38.2027V39.0755H75.9982Z" fill="white"></path>
<path d="M66.521 3.48953C66.521 1.57037 68.033 0 69.9521 0C71.8713 0 73.4983 1.57037 73.4983 3.48953C73.4983 5.40868 71.8695 6.92064 69.9521 6.92064C68.0347 6.92064 66.521 5.40868 66.521 3.48953Z" fill="white"></path>
</svg><style>@media (prefers-color-scheme: light) { :root { filter: none; } }
</style></svg>